<svg width="24" height="25" viewBox="0 0 24 25" fill="none" xmlns="http://www.w3.org/2000/svg">
<g clip-path="url(#clip0_2004_56)">
<mask id="mask0_2004_56" style="mask-type:luminance" maskUnits="userSpaceOnUse" x="1" y="0" width="22" height="25">
<path d="M1 0H23V24.1223H1V0Z" fill="white"/>
</mask>
<g mask="url(#mask0_2004_56)">
<path fill-rule="evenodd" clip-rule="evenodd" d="M21.9904 4.84434L22.981 23.4252C22.9993 23.8103 22.6632 24.1222 22.278 24.1222H1.70983C1.32472 24.1222 1.00066 23.8103 1.01281 23.4252L1.72198 4.79542C1.72198 4.39783 1.94228 4.1657 2.38223 4.10431H8.17246C8.33761 2.26999 9.21192 1.05357 10.3187 0.460297C10.8322 0.185165 11.3946 0.0446447 11.9573 0.0446447C12.5197 0.0384066 13.0821 0.173017 13.596 0.441911C14.7208 1.02271 15.6256 2.24569 15.8154 4.10431H21.2448C21.8378 4.14732 21.9661 4.37944 21.9904 4.84434ZM8.96141 4.10431H15.0205C14.8492 2.58813 14.1278 1.60383 13.2351 1.14517C12.8316 0.931106 12.3914 0.833267 11.9573 0.833267C11.523 0.833267 11.0889 0.943254 10.6917 1.15732C9.81734 1.62189 9.11408 2.60652 8.96141 4.10431Z" fill="#418AEA"/>
</g>
<circle cx="8.5" cy="5.5" r="0.5" fill="white"/>
<circle cx="15.5" cy="5.5" r="0.5" fill="white"/>
<ellipse cx="13.5" cy="13" rx="0.5" ry="1" fill="white"/>
<ellipse cx="10.5" cy="13" rx="0.5" ry="1" fill="white"/>
<path d="M6 14.5C7.5 16.1667 12 18.5 18 14.5" stroke="white" stroke-linecap="round"/>
</g>
<defs>
<clipPath id="clip0_2004_56">
<rect width="24" height="24.5" fill="white"/>
</clipPath>
</defs>
</svg>
