<svg width="20" height="9" viewBox="0 0 20 9" fill="none" xmlns="http://www.w3.org/2000/svg">
<path d="M16.6052 8.56427C17.527 8.56427 17.9608 8.21256 18.3398 7.14642L20 2.48992H19.0388L17.9255 6.09249H17.906L16.7927 2.4948H15.8042L17.4058 6.92686L17.32 7.19644C17.2594 7.58231 16.913 7.85759 16.5231 7.82912C16.4487 7.82912 16.3043 7.8214 16.2458 7.81367V8.54557C16.3649 8.56183 16.4853 8.56956 16.6052 8.56915V8.56427ZM13.4019 6.23236C12.8977 6.23236 12.5777 5.9884 12.5777 5.6192C12.5777 5.23658 12.8864 5.01375 13.4763 4.97838L14.527 4.9121V5.25609C14.5038 5.82291 14.0253 6.26408 13.4585 6.2409C13.4393 6.24009 13.4206 6.23846 13.4019 6.23684V6.23236ZM13.1482 6.95491C13.7203 6.97036 14.2554 6.67232 14.5429 6.17747H14.5624V6.90937H15.4374V3.87809C15.4374 2.999 14.7344 2.43259 13.652 2.43259C12.6481 2.43259 11.9056 3.00673 11.8784 3.79596H12.7302C12.8319 3.39463 13.2133 3.12993 13.6248 3.17466C14.203 3.17466 14.527 3.44424 14.527 3.9403V4.27616L13.3479 4.34651C12.25 4.41278 11.6564 4.86209 11.6564 5.64359C11.6555 6.43608 12.2687 6.95938 13.1478 6.95938L13.1482 6.95491ZM8.07737 1.6149H9.16709C9.98763 1.6149 10.4564 2.05241 10.4564 2.82212C10.4564 3.59184 9.98763 4.03301 9.16343 4.03301H8.07737V1.6149ZM7.132 0.817943V6.90815H8.07737V4.832H9.38625C10.4524 4.88933 11.3628 4.07164 11.4201 3.00551C11.4234 2.94492 11.4238 2.88474 11.4213 2.82416C11.4718 1.76982 10.6581 0.874462 9.60379 0.823635C9.54157 0.820789 9.47977 0.821196 9.41756 0.824042L7.132 0.817943ZM3.99419 1.95442C3.45096 1.92311 2.9862 2.26304 2.72841 2.26304C2.47062 2.26304 2.07214 1.97028 1.64235 1.97841C1.0731 1.99305 0.554264 2.30817 0.278989 2.80667C-0.306937 3.81466 0.126511 5.30692 0.692919 6.12705C0.970227 6.53366 1.30283 6.9789 1.73994 6.96304C2.15387 6.94759 2.31814 6.69346 2.81827 6.69346C3.3184 6.69346 3.46681 6.96304 3.90433 6.95491C4.35729 6.94719 4.64273 6.5483 4.92085 6.14169C5.11684 5.85381 5.26932 5.53869 5.37382 5.20649C4.83994 4.97309 4.49391 4.44735 4.49107 3.86467C4.4992 3.35072 4.76837 2.87661 5.20589 2.60703C4.92695 2.21099 4.47927 1.96784 3.995 1.95076L3.99419 1.95442ZM3.65507 1.41647C3.41721 1.71614 3.05329 1.88814 2.67067 1.88123C2.64627 1.50796 2.77314 1.14079 3.02239 0.861857C3.27042 0.573977 3.62011 0.393442 3.99825 0.358067C4.02509 0.741907 3.90189 1.12087 3.65426 1.41525" fill="black"/>
</svg>
