<svg width="20" height="9" viewBox="0 0 20 9" fill="none" xmlns="http://www.w3.org/2000/svg">
<path d="M9.45866 4.53756V6.84945H8.72012V1.14011H10.6789C10.9127 1.13526 11.1451 1.17644 11.3628 1.26128C11.5805 1.34611 11.7791 1.47292 11.9472 1.63438C12.117 1.78604 12.2521 1.97203 12.3435 2.17986C12.4349 2.38769 12.4804 2.61254 12.477 2.83929C12.4819 3.06726 12.4371 3.29358 12.3456 3.50273C12.2542 3.71188 12.1183 3.89893 11.9472 4.05104C11.6047 4.37539 11.1819 4.53741 10.6789 4.53711L9.45866 4.53756ZM9.45866 1.84302V3.83602H10.6972C10.833 3.84002 10.9681 3.81583 11.0939 3.765C11.2198 3.71417 11.3335 3.63782 11.4279 3.54083C11.5219 3.45015 11.5965 3.34169 11.6475 3.22185C11.6985 3.10202 11.7247 2.97325 11.7247 2.84316C11.7247 2.71308 11.6985 2.58431 11.6475 2.46448C11.5965 2.34464 11.5219 2.23618 11.4279 2.1455C11.3347 2.04647 11.2213 1.96824 11.0954 1.91602C10.9694 1.86379 10.8337 1.83875 10.6972 1.84256L9.45866 1.84302Z" fill="#5F6368"/>
<path d="M14.1789 2.8156C14.7247 2.8156 15.1556 2.96046 15.4715 3.25019C15.7874 3.53991 15.9452 3.93715 15.9449 4.44189V6.84944H15.2385V6.30735H15.2064C14.9006 6.75378 14.4938 6.977 13.9862 6.977C13.5529 6.977 13.1903 6.84944 12.8986 6.59434C12.7586 6.47725 12.6466 6.33062 12.5709 6.16512C12.4952 5.99963 12.4576 5.81944 12.461 5.6377C12.461 5.23348 12.6148 4.91201 12.9224 4.67331C13.2301 4.4346 13.6408 4.31495 14.1545 4.31434C14.5931 4.31434 14.9542 4.39406 15.238 4.5535V4.38586C15.2389 4.26196 15.2119 4.13943 15.1592 4.02715C15.1064 3.91487 15.0292 3.81566 14.933 3.73671C14.7377 3.56173 14.4832 3.46625 14.2201 3.46931C13.8076 3.46931 13.4811 3.64211 13.2408 3.98772L12.5903 3.58091C12.9481 3.0707 13.4776 2.8156 14.1789 2.8156ZM13.2233 5.65364C13.2229 5.74698 13.2448 5.83909 13.2874 5.92229C13.33 6.00549 13.3921 6.07738 13.4683 6.13196C13.6316 6.25956 13.8344 6.32715 14.0422 6.32329C14.3538 6.32277 14.6525 6.19958 14.8729 5.98072C15.1176 5.75204 15.2399 5.48372 15.2399 5.17577C15.0096 4.99356 14.6885 4.90245 14.2766 4.90245C13.9766 4.90245 13.7264 4.97427 13.5261 5.11792C13.3238 5.26369 13.2233 5.4409 13.2233 5.65364Z" fill="#5F6368"/>
<path d="M20 2.94317L17.5339 8.57141H16.7715L17.6867 6.6021L16.0651 2.94317H16.8679L18.0399 5.74932H18.0559L19.1959 2.94317H20Z" fill="#5F6368"/>
<path d="M6.47422 4.0392C6.4745 3.81569 6.45547 3.59257 6.41734 3.37228H3.30264V4.63551H5.0866C5.05009 4.83726 4.97283 5.02959 4.85946 5.20089C4.74609 5.37219 4.59897 5.51892 4.42696 5.63224V6.45222H5.49165C6.11505 5.88142 6.47422 5.0373 6.47422 4.0392Z" fill="#4285F4"/>
<path d="M3.30265 7.24443C4.19394 7.24443 4.94441 6.9538 5.49166 6.4527L4.42697 5.63272C4.13064 5.83225 3.74899 5.94613 3.30265 5.94613C2.44118 5.94613 1.70998 5.36941 1.44851 4.59225H0.351715V5.43729C0.62661 5.98052 1.04813 6.43718 1.56922 6.75629C2.09031 7.0754 2.69045 7.2444 3.30265 7.24443Z" fill="#34A853"/>
<path d="M1.44848 4.59224C1.31025 4.18501 1.31025 3.744 1.44848 3.33676V2.49173H0.351687C0.120436 2.94871 0 3.45306 0 3.9645C0 4.47594 0.120436 4.9803 0.351687 5.43728L1.44848 4.59224Z" fill="#FBBC04"/>
<path d="M3.30265 1.98287C3.77366 1.97523 4.22878 2.15196 4.56964 2.47486L5.5123 1.53872C4.91455 0.981166 4.12267 0.675061 3.30265 0.684572C2.69045 0.6846 2.09031 0.853604 1.56922 1.17272C1.04813 1.49183 0.62661 1.94849 0.351715 2.49172L1.44851 3.33675C1.70998 2.55959 2.44118 1.98287 3.30265 1.98287Z" fill="#EA4335"/>
</svg>
