<svg width="12" height="12" viewBox="0 0 12 12" fill="none" xmlns="http://www.w3.org/2000/svg">
<path d="M10.1278 3.01605C10.1278 3.08022 10.1278 3.1444 10.0636 3.20857C9.55026 5.77541 7.88181 6.60963 5.7 6.60963H4.60908C4.35239 6.60963 4.09572 6.80215 4.09572 7.05883L3.51817 10.6524L3.38983 11.6792C3.38983 11.8717 3.51817 12 3.64651 12H5.63582C5.89251 12 6.08502 11.8075 6.08502 11.615V11.4866L6.47005 9.17648V9.04814C6.53422 8.79145 6.72673 8.66311 6.91924 8.66311H7.2401C9.16523 8.66311 10.6412 7.89306 11.0262 5.64707C11.2187 4.6845 11.0904 3.91445 10.6412 3.40108C10.5128 3.27274 10.3203 3.14439 10.1278 3.01605Z" fill="#2199D6"/>
<path d="M9.61441 2.82353C9.55024 2.82353 9.48608 2.75936 9.35773 2.75936C9.29356 2.75936 9.16522 2.69519 9.10104 2.69519C8.78019 2.63102 8.45933 2.63102 8.13848 2.63102H5.18661C5.12244 2.63102 5.05827 2.63102 4.9941 2.69519C4.86575 2.75936 4.73741 2.8877 4.73741 3.01605L4.0957 6.99466V7.123C4.15987 6.86631 4.35238 6.6738 4.60906 6.6738H5.69998C7.8818 6.6738 9.55024 5.77541 10.0636 3.27273C10.0636 3.20856 10.0636 3.14439 10.1278 3.08022C9.99944 3.01605 9.8711 2.95188 9.74276 2.88771C9.67858 2.82353 9.61441 2.82353 9.61441 2.82353Z" fill="#252C5E"/>
<path d="M4.73741 3.01604C4.73741 2.8877 4.86575 2.75936 4.99409 2.69519C5.05827 2.69519 5.12244 2.63102 5.18661 2.63102H8.13848C8.45933 2.63102 8.84436 2.63101 9.10104 2.69519C9.16521 2.69519 9.29356 2.69519 9.35773 2.75936C9.42191 2.75936 9.48607 2.82353 9.61441 2.82353C9.67859 2.82353 9.67858 2.82353 9.74275 2.8877C9.8711 2.95187 9.99944 3.01604 10.1278 3.08021C10.2561 2.11765 10.1278 1.47593 9.61441 0.898394C9.03687 0.256683 8.01014 0 6.72671 0H2.94062C2.68394 0 2.42725 0.192511 2.42725 0.449196L0.887146 10.3316C0.887146 10.5241 1.01549 10.7166 1.208 10.7166H3.51816L4.0957 6.99465L4.73741 3.01604Z" fill="#263577"/>
</svg>
