<svg width="16" height="7" viewBox="0 0 16 7" fill="none" xmlns="http://www.w3.org/2000/svg">
<path fill-rule="evenodd" clip-rule="evenodd" d="M16 3.44C16 2.30222 15.4489 1.40444 14.3956 1.40444C13.3378 1.40444 12.6978 2.30222 12.6978 3.43111C12.6978 4.76889 13.4533 5.44444 14.5378 5.44444C15.0667 5.44444 15.4667 5.32444 15.7689 5.15556V4.26667C15.4667 4.41778 15.12 4.51111 14.68 4.51111C14.2489 4.51111 13.8667 4.36 13.8178 3.83556H15.9911C15.9911 3.77778 16 3.54667 16 3.44ZM13.8044 3.01778C13.8044 2.51556 14.1111 2.30667 14.3911 2.30667C14.6622 2.30667 14.9511 2.51556 14.9511 3.01778H13.8044ZM10.9822 1.40444C10.5467 1.40444 10.2667 1.60889 10.1111 1.75111L10.0533 1.47556H9.07556V6.65778L10.1867 6.42222L10.1911 5.16444C10.3511 5.28 10.5867 5.44444 10.9778 5.44444C11.7733 5.44444 12.4978 4.80444 12.4978 3.39556C12.4933 2.10667 11.76 1.40444 10.9822 1.40444ZM10.7156 4.46667C10.4533 4.46667 10.2978 4.37333 10.1911 4.25778L10.1867 2.60889C10.3022 2.48 10.4622 2.39111 10.7156 2.39111C11.12 2.39111 11.4 2.84444 11.4 3.42667C11.4 4.02222 11.1244 4.46667 10.7156 4.46667ZM7.54667 1.14222L8.66222 0.902222V0L7.54667 0.235556V1.14222ZM7.54667 1.48H8.66222V5.36889H7.54667V1.48ZM6.35111 1.80889L6.28 1.48H5.32V5.36889H6.43111V2.73333C6.69333 2.39111 7.13778 2.45333 7.27556 2.50222V1.48C7.13333 1.42667 6.61333 1.32889 6.35111 1.80889ZM4.12889 0.515556L3.04444 0.746667L3.04 4.30667C3.04 4.96444 3.53333 5.44889 4.19111 5.44889C4.55556 5.44889 4.82222 5.38222 4.96889 5.30222V4.4C4.82667 4.45778 4.12444 4.66222 4.12444 4.00444V2.42667H4.96889V1.48H4.12444L4.12889 0.515556ZM1.12444 2.60889C1.12444 2.43556 1.26667 2.36889 1.50222 2.36889C1.84 2.36889 2.26667 2.47111 2.60444 2.65333V1.60889C2.23556 1.46222 1.87111 1.40444 1.50222 1.40444C0.6 1.40444 0 1.87556 0 2.66222C0 3.88889 1.68889 3.69333 1.68889 4.22222C1.68889 4.42667 1.51111 4.49333 1.26222 4.49333C0.893333 4.49333 0.422222 4.34222 0.0488888 4.13778V5.19556C0.462222 5.37333 0.88 5.44889 1.26222 5.44889C2.18667 5.44889 2.82222 4.99111 2.82222 4.19556C2.81778 2.87111 1.12444 3.10667 1.12444 2.60889Z" fill="#635BFF"/>
</svg>
